{
  "accessors": [
    {
      "bufferView": 2,
      "componentType": 5126,
      "count": 2434,
      "max": [
        0.35911700129508972,
        0.072329998016357422,
        0.4068630039691925
      ],
      "min": [
        -0.44750601053237915,
        -0.051929499953985214,
        -0.32725301384925842
      ],
      "type": "VEC3"
    },
    {
      "bufferView": 2,
      "byteOffset": 29208,
      "componentType": 5126,
      "count": 2434,
      "max": [
        0.97895574569702148,
        1,
        0.99247688055038452
      ],
      "min": [
        -0.99407452344894409,
        -1,
        -0.99978864192962646
      ],
      "type": "VEC3"
    },
    {
      "bufferView": 3,
      "componentType": 5126,
      "count": 2434,
      "max": [
        0.99417316913604736,
        0.98348283767700195,
        0.99462735652923584,
        1
      ],
      "min": [
        -0.99982237815856934,
        -0.98318511247634888,
        -0.99743854999542236,
        1
      ],
      "type": "VEC4"
    },
    {
      "bufferView": 1,
      "componentType": 5126,
      "count": 2434,
      "max": [
        0.44690901041030884,
        0.99800801277160645
      ],
      "min": [
        0.00089203502284362912,
        0.001992030069231987
      ],
      "type": "VEC2"
    },
    {
      "bufferView": 0,
      "componentType": 5125,
      "count": 13404,
      "max": [
        2433
      ],
      "min": [
        0
      ],
      "type": "SCALAR"
    },
    {
      "bufferView": 2,
      "byteOffset": 58416,
      "componentType": 5126,
      "count": 124,
      "max": [
        1,
        -0.051667798310518265,
        1
      ],
      "min": [
        -1,
        -0.072329998016357422,
        -1
      ],
      "type": "VEC3"
    },
    {
      "bufferView": 2,
      "byteOffset": 59904,
      "componentType": 5126,
      "count": 124,
      "max": [
        0.97559726238250732,
        0.99339038133621216,
        0.97559726238250732
      ],
      "min": [
        -0.97559726238250732,
        -0.99339038133621216,
        -0.97559726238250732
      ],
      "type": "VEC3"
    },
    {
      "bufferView": 3,
      "byteOffset": 38944,
      "componentType": 5126,
      "count": 124,
      "max": [
        0.99670016765594482,
        0.98368191719055176,
        0.99669903516769409,
        1
      ],
      "min": [
        -0.62873750925064087,
        -0.98386132717132568,
        -0.85723972320556641,
        1
      ],
      "type": "VEC4"
    },
    {
      "bufferView": 1,
      "byteOffset": 19472,
      "componentType": 5126,
      "count": 124,
      "max": [
        0.50327599048614502,
        0.99800801277160645
      ],
      "min": [
        0.0010045400122180581,
        0.001992030069231987
      ],
      "type": "VEC2"
    },
    {
      "bufferView": 0,
      "byteOffset": 53616,
      "componentType": 5125,
      "count": 564,
      "max": [
        123
      ],
      "min": [
        0
      ],
      "type": "SCALAR"
    },
    {
      "bufferView": 2,
      "byteOffset": 61392,
      "componentType": 5126,
      "count": 916,
      "max": [
        0.34555500745773315,
        0.070975996553897858,
        0.28729799389839172
      ],
      "min": [
        -0.22815500199794769,
        -0.051542699337005615,
        -0.41724899411201477
      ],
      "type": "VEC3"
    },
    {
      "bufferView": 2,
      "byteOffset": 72384,
      "componentType": 5126,
      "count": 916,
      "max": [
        1,
        0.99564146995544434,
        0.99922478199005127
      ],
      "min": [
        -0.99994665384292603,
        -0.99564146995544434,
        -0.96992599964141846
      ],
      "type": "VEC3"
    },
    {
      "bufferView": 3,
      "byteOffset": 40928,
      "componentType": 5126,
      "count": 916,
      "max": [
        0.99114137887954712,
        0.99999493360519409,
        0.99242258071899414,
        1
      ],
      "min": [
        -0.97993201017379761,
        -0.99960905313491821,
        -0.93921351432800293,
        1
      ],
      "type": "VEC4"
    },
    {
      "bufferView": 1,
      "byteOffset": 20464,
      "componentType": 5126,
      "count": 916,
      "max": [
        0.7710760235786438,
        0.99800801277160645
      ],
      "min": [
        0.0016765299951657653,
        0.001992030069231987
      ],
      "type": "VEC2"
    },
    {
      "bufferView": 0,
      "byteOffset": 55872,
      "componentType": 5125,
      "count": 4800,
      "max": [
        915
      ],
      "min": [
        0
      ],
      "type": "SCALAR"
    }
  ],
  "asset": {
    "extras": {
      "author": "bvchepovyi (https://sketchfab.com/bvchepovoy)",
      "license": "CC-BY-4.0 (http://creativecommons.org/licenses/by/4.0/)",
      "source": "https://sketchfab.com/3d-models/banana-duct-taped-to-the-wall-9efb18fa4f8444188e6dccf974c2dcee",
      "title": "Banana duct taped to the wall"
    },
    "generator": "Sketchfab-7.17.0",
    "version": "2.0"
  },
  "bufferViews": [
    {
      "buffer": 0,
      "byteLength": 75072,
      "byteOffset": 0,
      "name": "floatBufferViews",
      "target": 34963
    },
    {
      "buffer": 0,
      "byteLength": 27792,
      "byteOffset": 75072,
      "byteStride": 8,
      "name": "floatBufferViews",
      "target": 34962
    },
    {
      "buffer": 0,
      "byteLength": 83376,
      "byteOffset": 102864,
      "byteStride": 12,
      "name": "floatBufferViews",
      "target": 34962
    },
    {
      "buffer": 0,
      "byteLength": 55584,
      "byteOffset": 186240,
      "byteStride": 16,
      "name": "floatBufferViews",
      "target": 34962
    }
  ],
  "buffers": [
    {
      "byteLength": 241824,
      "uri": "scene.bin"
    }
  ],
  "images": [
    {
      "uri": "textures/banana_baseColor.jpeg"
    },
    {
      "uri": "textures/banana_metallicRoughness.png"
    },
    {
      "uri": "textures/banana_normal.png"
    },
    {
      "uri": "textures/frame_baseColor.jpeg"
    },
    {
      "uri": "textures/frame_metallicRoughness.png"
    },
    {
      "uri": "textures/frame_normal.png"
    },
    {
      "uri": "textures/tape_baseColor.jpeg"
    },
    {
      "uri": "textures/tape_metallicRoughness.png"
    },
    {
      "uri": "textures/tape_normal.png"
    }
  ],
  "materials": [
    {
      "doubleSided": true,
      "name": "banana",
      "normalTexture": {
        "index": 2,
        "scale": 1,
        "texCoord": 0
      },
      "pbrMetallicRoughness": {
        "baseColorFactor": [
          1,
          1,
          1,
          1
        ],
        "baseColorTexture": {
          "index": 0,
          "texCoord": 0
        },
        "metallicFactor": 1,
        "metallicRoughnessTexture": {
          "index": 1,
          "texCoord": 0
        },
        "roughnessFactor": 1
      }
    },
    {
      "doubleSided": true,
      "name": "frame",
      "normalTexture": {
        "index": 5,
        "scale": 1,
        "texCoord": 0
      },
      "occlusionTexture": {
        "index": 4,
        "strength": 1,
        "texCoord": 0
      },
      "pbrMetallicRoughness": {
        "baseColorFactor": [
          1,
          1,
          1,
          1
        ],
        "baseColorTexture": {
          "index": 3,
          "texCoord": 0
        },
        "metallicFactor": 1,
        "metallicRoughnessTexture": {
          "index": 4,
          "texCoord": 0
        },
        "roughnessFactor": 1
      }
    },
    {
      "doubleSided": true,
      "name": "tape",
      "normalTexture": {
        "index": 8,
        "scale": 1,
        "texCoord": 0
      },
      "pbrMetallicRoughness": {
        "baseColorFactor": [
          1,
          1,
          1,
          1
        ],
        "baseColorTexture": {
          "index": 6,
          "texCoord": 0
        },
        "metallicFactor": 1,
        "metallicRoughnessTexture": {
          "index": 7,
          "texCoord": 0
        },
        "roughnessFactor": 1
      }
    }
  ],
  "meshes": [
    {
      "name": "defaultMaterial",
      "primitives": [
        {
          "attributes": {
            "NORMAL": 1,
            "POSITION": 0,
            "TANGENT": 2,
            "TEXCOORD_0": 3
          },
          "indices": 4,
          "material": 2,
          "mode": 4
        }
      ]
    },
    {
      "name": "defaultMaterial",
      "primitives": [
        {
          "attributes": {
            "NORMAL": 6,
            "POSITION": 5,
            "TANGENT": 7,
            "TEXCOORD_0": 8
          },
          "indices": 9,
          "material": 1,
          "mode": 4
        }
      ]
    },
    {
      "name": "defaultMaterial",
      "primitives": [
        {
          "attributes": {
            "NORMAL": 11,
            "POSITION": 10,
            "TANGENT": 12,
            "TEXCOORD_0": 13
          },
          "indices": 14,
          "material": 0,
          "mode": 4
        }
      ]
    }
  ],
  "nodes": [
    {
      "children": [
        1
      ],
      "name": "RootNode (gltf orientation matrix)",
      "rotation": [
        -0.70710678118654746,
        -0,
        -0,
        0.70710678118654757
      ]
    },
    {
      "children": [
        2
      ],
      "name": "RootNode (model correction matrix)"
    },
    {
      "children": [
        3,
        5,
        7
      ],
      "matrix": [
        1,
        0,
        0,
        0,
        0,
        -4.3711390063094768e-08,
        0.999999999999999,
        0,
        0,
        -0.999999999999999,
        -4.3711390063094768e-08,
        0,
        0,
        0,
        0,
        1
      ],
      "name": "Collada visual scene group"
    },
    {
      "children": [
        4
      ],
      "name": "plane_low"
    },
    {
      "mesh": 0,
      "name": "defaultMaterial"
    },
    {
      "children": [
        6
      ],
      "name": "frame_low"
    },
    {
      "mesh": 1,
      "name": "defaultMaterial"
    },
    {
      "children": [
        8
      ],
      "name": "banana_mesh_low"
    },
    {
      "mesh": 2,
      "name": "defaultMaterial"
    }
  ],
  "samplers": [
    {
      "magFilter": 9729,
      "minFilter": 9987,
      "wrapS": 10497,
      "wrapT": 10497
    }
  ],
  "scene": 0,
  "scenes": [
    {
      "name": "OSG_Scene",
      "nodes": [
        0
      ]
    }
  ],
  "textures": [
    {
      "sampler": 0,
      "source": 0
    },
    {
      "sampler": 0,
      "source": 1
    },
    {
      "sampler": 0,
      "source": 2
    },
    {
      "sampler": 0,
      "source": 3
    },
    {
      "sampler": 0,
      "source": 4
    },
    {
      "sampler": 0,
      "source": 5
    },
    {
      "sampler": 0,
      "source": 6
    },
    {
      "sampler": 0,
      "source": 7
    },
    {
      "sampler": 0,
      "source": 8
    }
  ]
}

