{
  "accessors": [
    {
      "bufferView": 1,
      "componentType": 5126,
      "count": 1804,
      "max": [
        0.095389999449253082,
        0.15308000147342682,
        0.36798998713493347
      ],
      "min": [
        -0.094259999692440033,
        -0.040770001709461212,
        -0.10726000368595123
      ],
      "type": "VEC3"
    },
    {
      "bufferView": 1,
      "byteOffset": 21648,
      "componentType": 5126,
      "count": 1804,
      "max": [
        0.99904310703277588,
        0.99999600648880005,
        1
      ],
      "min": [
        -0.99969267845153809,
        -0.99999600648880005,
        -1
      ],
      "type": "VEC3"
    },
    {
      "bufferView": 0,
      "componentType": 5125,
      "count": 10824,
      "max": [
        1803
      ],
      "min": [
        0
      ],
      "type": "SCALAR"
    },
    {
      "bufferView": 1,
      "byteOffset": 43296,
      "componentType": 5126,
      "count": 1804,
      "max": [
        0.095389999449253082,
        0.15308000147342682,
        0.36798998713493347
      ],
      "min": [
        -0.094259999692440033,
        -0.040770001709461212,
        -0.10726000368595123
      ],
      "type": "VEC3"
    },
    {
      "bufferView": 1,
      "byteOffset": 64944,
      "componentType": 5126,
      "count": 1804,
      "max": [
        0.99904310703277588,
        0.99999600648880005,
        1
      ],
      "min": [
        -0.99969267845153809,
        -0.99999600648880005,
        -1
      ],
      "type": "VEC3"
    },
    {
      "bufferView": 0,
      "byteOffset": 43296,
      "componentType": 5125,
      "count": 10824,
      "max": [
        1803
      ],
      "min": [
        0
      ],
      "type": "SCALAR"
    },
    {
      "bufferView": 1,
      "byteOffset": 86592,
      "componentType": 5126,
      "count": 1804,
      "max": [
        0.095389999449253082,
        0.15308000147342682,
        0.36798998713493347
      ],
      "min": [
        -0.094259999692440033,
        -0.040770001709461212,
        -0.10726000368595123
      ],
      "type": "VEC3"
    },
    {
      "bufferView": 1,
      "byteOffset": 108240,
      "componentType": 5126,
      "count": 1804,
      "max": [
        0.99904310703277588,
        0.99999600648880005,
        1
      ],
      "min": [
        -0.99969267845153809,
        -0.99999600648880005,
        -1
      ],
      "type": "VEC3"
    },
    {
      "bufferView": 0,
      "byteOffset": 86592,
      "componentType": 5125,
      "count": 10824,
      "max": [
        1803
      ],
      "min": [
        0
      ],
      "type": "SCALAR"
    },
    {
      "bufferView": 1,
      "byteOffset": 129888,
      "componentType": 5126,
      "count": 1804,
      "max": [
        0.095389999449253082,
        0.15308000147342682,
        0.36798998713493347
      ],
      "min": [
        -0.094259999692440033,
        -0.040770001709461212,
        -0.10726000368595123
      ],
      "type": "VEC3"
    },
    {
      "bufferView": 1,
      "byteOffset": 151536,
      "componentType": 5126,
      "count": 1804,
      "max": [
        0.99904310703277588,
        0.99999600648880005,
        1
      ],
      "min": [
        -0.99969267845153809,
        -0.99999600648880005,
        -1
      ],
      "type": "VEC3"
    },
    {
      "bufferView": 0,
      "byteOffset": 129888,
      "componentType": 5125,
      "count": 10824,
      "max": [
        1803
      ],
      "min": [
        0
      ],
      "type": "SCALAR"
    },
    {
      "bufferView": 1,
      "byteOffset": 173184,
      "componentType": 5126,
      "count": 1804,
      "max": [
        0.095389999449253082,
        0.15308000147342682,
        0.36798998713493347
      ],
      "min": [
        -0.094259999692440033,
        -0.040770001709461212,
        -0.10726000368595123
      ],
      "type": "VEC3"
    },
    {
      "bufferView": 1,
      "byteOffset": 194832,
      "componentType": 5126,
      "count": 1804,
      "max": [
        0.99904310703277588,
        0.99999600648880005,
        1
      ],
      "min": [
        -0.99969267845153809,
        -0.99999600648880005,
        -1
      ],
      "type": "VEC3"
    },
    {
      "bufferView": 0,
      "byteOffset": 173184,
      "componentType": 5125,
      "count": 10824,
      "max": [
        1803
      ],
      "min": [
        0
      ],
      "type": "SCALAR"
    },
    {
      "bufferView": 1,
      "byteOffset": 216480,
      "componentType": 5126,
      "count": 1804,
      "max": [
        0.095389999449253082,
        0.15308000147342682,
        0.36798998713493347
      ],
      "min": [
        -0.094259999692440033,
        -0.040770001709461212,
        -0.10726000368595123
      ],
      "type": "VEC3"
    },
    {
      "bufferView": 1,
      "byteOffset": 238128,
      "componentType": 5126,
      "count": 1804,
      "max": [
        0.99904310703277588,
        0.99999600648880005,
        1
      ],
      "min": [
        -0.99969267845153809,
        -0.99999600648880005,
        -1
      ],
      "type": "VEC3"
    },
    {
      "bufferView": 0,
      "byteOffset": 216480,
      "componentType": 5125,
      "count": 10824,
      "max": [
        1803
      ],
      "min": [
        0
      ],
      "type": "SCALAR"
    },
    {
      "bufferView": 1,
      "byteOffset": 259776,
      "componentType": 5126,
      "count": 1804,
      "max": [
        0.095389999449253082,
        0.15308000147342682,
        0.36798998713493347
      ],
      "min": [
        -0.094259999692440033,
        -0.040770001709461212,
        -0.10726000368595123
      ],
      "type": "VEC3"
    },
    {
      "bufferView": 1,
      "byteOffset": 281424,
      "componentType": 5126,
      "count": 1804,
      "max": [
        0.99904310703277588,
        0.99999600648880005,
        1
      ],
      "min": [
        -0.99969267845153809,
        -0.99999600648880005,
        -1
      ],
      "type": "VEC3"
    },
    {
      "bufferView": 0,
      "byteOffset": 259776,
      "componentType": 5125,
      "count": 10824,
      "max": [
        1803
      ],
      "min": [
        0
      ],
      "type": "SCALAR"
    },
    {
      "bufferView": 1,
      "byteOffset": 303072,
      "componentType": 5126,
      "count": 2256,
      "max": [
        0.041280001401901245,
        1.493149995803833,
        0.066079996526241302
      ],
      "min": [
        -0.091439999639987946,
        -0.077730000019073486,
        -0.066789999604225159
      ],
      "type": "VEC3"
    },
    {
      "bufferView": 1,
      "byteOffset": 330144,
      "componentType": 5126,
      "count": 2256,
      "max": [
        0.99998492002487183,
        0.98197042942047119,
        0.98725718259811401
      ],
      "min": [
        -0.99998492002487183,
        -0.98197042942047119,
        -0.98725718259811401
      ],
      "type": "VEC3"
    },
    {
      "bufferView": 0,
      "byteOffset": 303072,
      "componentType": 5125,
      "count": 13500,
      "max": [
        2255
      ],
      "min": [
        0
      ],
      "type": "SCALAR"
    },
    {
      "bufferView": 1,
      "byteOffset": 357216,
      "componentType": 5126,
      "count": 5742,
      "max": [
        1.0633100271224976,
        0.20823000371456146,
        0.97426998615264893
      ],
      "min": [
        -0.28850001096725464,
        -0.12008000165224075,
        -0.40033999085426331
      ],
      "type": "VEC3"
    },
    {
      "bufferView": 1,
      "byteOffset": 426120,
      "componentType": 5126,
      "count": 5742,
      "max": [
        1,
        1,
        1
      ],
      "min": [
        -0.99932122230529785,
        -1,
        -1
      ],
      "type": "VEC3"
    },
    {
      "bufferView": 0,
      "byteOffset": 357072,
      "componentType": 5125,
      "count": 34176,
      "max": [
        5741
      ],
      "min": [
        0
      ],
      "type": "SCALAR"
    },
    {
      "bufferView": 1,
      "byteOffset": 495024,
      "componentType": 5126,
      "count": 25456,
      "max": [
        1.9845800399780273,
        0.99522000551223755,
        4.702660083770752
      ],
      "min": [
        -1.9845600128173828,
        -0.99518001079559326,
        -0
      ],
      "type": "VEC3"
    },
    {
      "bufferView": 1,
      "byteOffset": 800496,
      "componentType": 5126,
      "count": 25456,
      "max": [
        0.99994796514511108,
        0.9999769926071167,
        0.99996942281723022
      ],
      "min": [
        -0.99962145090103149,
        -0.9999769926071167,
        -0.99996942281723022
      ],
      "type": "VEC3"
    },
    {
      "bufferView": 0,
      "byteOffset": 493776,
      "componentType": 5125,
      "count": 25464,
      "max": [
        25455
      ],
      "min": [
        0
      ],
      "type": "SCALAR"
    },
    {
      "bufferView": 1,
      "byteOffset": 1105968,
      "componentType": 5126,
      "count": 2256,
      "max": [
        0.040630001574754715,
        0.076949998736381531,
        0.066079996526241302
      ],
      "min": [
        -0.040600001811981201,
        -1.4951800107955933,
        -0.066789999604225159
      ],
      "type": "VEC3"
    },
    {
      "bufferView": 1,
      "byteOffset": 1133040,
      "componentType": 5126,
      "count": 2256,
      "max": [
        0.99997538328170776,
        0.98079162836074829,
        0.98725908994674683
      ],
      "min": [
        -0.99997538328170776,
        -0.98079162836074829,
        -0.98726379871368408
      ],
      "type": "VEC3"
    },
    {
      "bufferView": 0,
      "byteOffset": 595632,
      "componentType": 5125,
      "count": 13500,
      "max": [
        2255
      ],
      "min": [
        0
      ],
      "type": "SCALAR"
    },
    {
      "bufferView": 1,
      "byteOffset": 1160112,
      "componentType": 5126,
      "count": 756,
      "max": [
        -3.659869909286499,
        0.40753999352455139,
        -0.59662002325057983
      ],
      "min": [
        -4.4256401062011719,
        -0.091159999370574951,
        -2.0877799987792969
      ],
      "type": "VEC3"
    },
    {
      "bufferView": 1,
      "byteOffset": 1169184,
      "componentType": 5126,
      "count": 756,
      "max": [
        0.99840152263641357,
        0.99858003854751587,
        0.99958634376525879
      ],
      "min": [
        -0.99816828966140747,
        -0.99937456846237183,
        -0.99414926767349243
      ],
      "type": "VEC3"
    },
    {
      "bufferView": 0,
      "byteOffset": 649632,
      "componentType": 5125,
      "count": 4488,
      "max": [
        755
      ],
      "min": [
        0
      ],
      "type": "SCALAR"
    }
  ],
  "asset": {
    "extras": {
      "author": "thedeserttabernacle (https://sketchfab.com/thedeserttabernacle)",
      "license": "CC-BY-NC-4.0 (http://creativecommons.org/licenses/by-nc/4.0/)",
      "source": "https://sketchfab.com/models/5a3ae34b9f744163bb63222577f5e238",
      "title": "Lampstand Menorah Of The Tabernacle"
    },
    "generator": "Sketchfab-3.18.7",
    "version": "2.0"
  },
  "bufferViews": [
    {
      "buffer": 0,
      "byteLength": 667584,
      "byteOffset": 0,
      "name": "floatBufferViews",
      "target": 34963
    },
    {
      "buffer": 0,
      "byteLength": 1178256,
      "byteOffset": 667584,
      "byteStride": 12,
      "name": "floatBufferViews",
      "target": 34962
    }
  ],
  "buffers": [
    {
      "byteLength": 1845840,
      "uri": "scene.bin"
    }
  ],
  "materials": [
    {
      "doubleSided": true,
      "name": "Gold",
      "pbrMetallicRoughness": {
        "baseColorFactor": [
          0.57351171079999996,
          0.46532875108999999,
          0.14367571700999998,
          1
        ],
        "metallicFactor": 0,
        "roughnessFactor": 0.59999999999999998
      }
    }
  ],
  "meshes": [
    {
      "name": "Lamp.008_0",
      "primitives": [
        {
          "attributes": {
            "NORMAL": 1,
            "POSITION": 0
          },
          "indices": 2,
          "material": 0,
          "mode": 4
        }
      ]
    },
    {
      "name": "Lamp.007_0",
      "primitives": [
        {
          "attributes": {
            "NORMAL": 4,
            "POSITION": 3
          },
          "indices": 5,
          "material": 0,
          "mode": 4
        }
      ]
    },
    {
      "name": "Lamp.006_0",
      "primitives": [
        {
          "attributes": {
            "NORMAL": 7,
            "POSITION": 6
          },
          "indices": 8,
          "material": 0,
          "mode": 4
        }
      ]
    },
    {
      "name": "Lamp.005_0",
      "primitives": [
        {
          "attributes": {
            "NORMAL": 10,
            "POSITION": 9
          },
          "indices": 11,
          "material": 0,
          "mode": 4
        }
      ]
    },
    {
      "name": "Lamp.004_0",
      "primitives": [
        {
          "attributes": {
            "NORMAL": 13,
            "POSITION": 12
          },
          "indices": 14,
          "material": 0,
          "mode": 4
        }
      ]
    },
    {
      "name": "Lamp.003_0",
      "primitives": [
        {
          "attributes": {
            "NORMAL": 16,
            "POSITION": 15
          },
          "indices": 17,
          "material": 0,
          "mode": 4
        }
      ]
    },
    {
      "name": "Lamp.002_0",
      "primitives": [
        {
          "attributes": {
            "NORMAL": 19,
            "POSITION": 18
          },
          "indices": 20,
          "material": 0,
          "mode": 4
        }
      ]
    },
    {
      "name": "Tweezers_0",
      "primitives": [
        {
          "attributes": {
            "NORMAL": 22,
            "POSITION": 21
          },
          "indices": 23,
          "material": 0,
          "mode": 4
        }
      ]
    },
    {
      "name": "Utensils_0",
      "primitives": [
        {
          "attributes": {
            "NORMAL": 25,
            "POSITION": 24
          },
          "indices": 26,
          "material": 0,
          "mode": 4
        }
      ]
    },
    {
      "name": "LampStand.001_0",
      "primitives": [
        {
          "attributes": {
            "NORMAL": 28,
            "POSITION": 27
          },
          "indices": 29,
          "material": 0,
          "mode": 4
        }
      ]
    },
    {
      "name": "Tweezers.001_0",
      "primitives": [
        {
          "attributes": {
            "NORMAL": 31,
            "POSITION": 30
          },
          "indices": 32,
          "material": 0,
          "mode": 4
        }
      ]
    },
    {
      "name": "Utensils.001_0",
      "primitives": [
        {
          "attributes": {
            "NORMAL": 34,
            "POSITION": 33
          },
          "indices": 35,
          "material": 0,
          "mode": 4
        }
      ]
    }
  ],
  "nodes": [
    {
      "children": [
        1
      ],
      "name": "RootNode (gltf orientation matrix)",
      "rotation": [
        -0.70710678118654746,
        -0,
        -0,
        0.70710678118654757
      ]
    },
    {
      "children": [
        2
      ],
      "name": "RootNode (model correction matrix)"
    },
    {
      "children": [
        3,
        5,
        7,
        9,
        11,
        13,
        15,
        17,
        19,
        21,
        23,
        25
      ],
      "name": "Root"
    },
    {
      "children": [
        4
      ],
      "matrix": [
        0.96578000000000008,
        -0.25937000000000004,
        0,
        0,
        0.25937000000000004,
        0.96578000000000008,
        0,
        0,
        0,
        0,
        1,
        0,
        1.2923100000000001,
        -0.82037000000000004,
        4.6893200000000004,
        1
      ],
      "name": "Lamp.008"
    },
    {
      "mesh": 0,
      "name": "Lamp.008_0"
    },
    {
      "children": [
        6
      ],
      "matrix": [
        0.9660700000000001,
        0.25827,
        0,
        0,
        -0.25827,
        0.9660700000000001,
        0,
        0,
        0,
        0,
        1,
        0,
        -1.27294,
        -0.81750999999999996,
        4.6893200000000004,
        1
      ],
      "name": "Lamp.007"
    },
    {
      "mesh": 1,
      "name": "Lamp.007_0"
    },
    {
      "children": [
        8
      ],
      "matrix": [
        0.9660700000000001,
        0.25827,
        0,
        0,
        -0.25827,
        0.9660700000000001,
        0,
        0,
        0,
        0,
        1,
        0,
        -0.81657999999999997,
        0.87000000000000011,
        4.5916700000000006,
        1
      ],
      "name": "Lamp.006"
    },
    {
      "mesh": 2,
      "name": "Lamp.006_0"
    },
    {
      "children": [
        10
      ],
      "matrix": [
        0.96578000000000008,
        -0.25937000000000004,
        0,
        0,
        0.25937000000000004,
        0.96578000000000008,
        0,
        0,
        0,
        0,
        1,
        0,
        0.83218000000000003,
        0.86923000000000006,
        4.5916700000000006,
        1
      ],
      "name": "Lamp.005"
    },
    {
      "mesh": 3,
      "name": "Lamp.005_0"
    },
    {
      "children": [
        12
      ],
      "matrix": [
        0.96578000000000008,
        -0.25937000000000004,
        0,
        0,
        0.25937000000000004,
        0.96578000000000008,
        0,
        0,
        0,
        0,
        1,
        0,
        1.83229,
        0.025090000000000005,
        4.7419799999999999,
        1
      ],
      "name": "Lamp.004"
    },
    {
      "mesh": 4,
      "name": "Lamp.004_0"
    },
    {
      "children": [
        14
      ],
      "matrix": [
        0.9660700000000001,
        0.25827,
        0,
        0,
        -0.25827,
        0.9660700000000001,
        0,
        0,
        0,
        0,
        1,
        0,
        -1.8077099999999999,
        0.025180000000000004,
        4.7419799999999999,
        1
      ],
      "name": "Lamp.003"
    },
    {
      "mesh": 5,
      "name": "Lamp.003_0"
    },
    {
      "children": [
        16
      ],
      "matrix": [
        1,
        -0.00057000000000000019,
        0,
        0,
        0.00057000000000000019,
        1,
        0,
        0,
        0,
        0,
        1,
        0,
        0.0069700000000000022,
        0.016160000000000004,
        4.0024600000000001,
        1
      ],
      "name": "Lamp.002"
    },
    {
      "mesh": 6,
      "name": "Lamp.002_0"
    },
    {
      "children": [
        18
      ],
      "matrix": [
        1,
        0,
        0,
        0,
        0,
        1,
        0,
        0,
        0,
        0,
        1,
        0,
        -0.92065000000000008,
        -1.91665,
        0.068670000000000023,
        1
      ],
      "name": "Tweezers"
    },
    {
      "mesh": 7,
      "name": "Tweezers_0"
    },
    {
      "children": [
        20
      ],
      "matrix": [
        0.93288000000000004,
        -0.35003000000000001,
        -0.084930000000000019,
        0,
        0.0044500000000000008,
        0.24700000000000003,
        -0.96901000000000004,
        0,
        0.36016000000000004,
        0.90359,
        0.23198000000000002,
        0,
        0.6581800000000001,
        -1.3293199999999998,
        0.06252000000000002,
        1
      ],
      "name": "Utensils"
    },
    {
      "mesh": 8,
      "name": "Utensils_0"
    },
    {
      "children": [
        22
      ],
      "matrix": [
        1,
        0,
        0,
        0,
        0,
        1,
        0,
        0,
        0,
        0,
        1,
        0,
        0.007700000000000002,
        0.076930000000000012,
        0,
        1
      ],
      "name": "LampStand.001"
    },
    {
      "mesh": 9,
      "name": "LampStand.001_0"
    },
    {
      "children": [
        24
      ],
      "matrix": [
        1,
        0,
        0,
        0,
        0,
        1,
        0,
        0,
        0,
        0,
        1,
        0,
        -0.60853000000000002,
        -0.51373000000000002,
        0.068670000000000023,
        1
      ],
      "name": "Tweezers.001"
    },
    {
      "mesh": 10,
      "name": "Tweezers.001_0"
    },
    {
      "children": [
        26
      ],
      "matrix": [
        0.93288000000000004,
        -0.35003000000000001,
        -0.084930000000000019,
        0,
        0.0044500000000000008,
        0.24700000000000003,
        -0.96901000000000004,
        0,
        0.36016000000000004,
        0.90359,
        0.23198000000000002,
        0,
        2.85839,
        -0.97710999999999992,
        0.16705000000000003,
        1
      ],
      "name": "Utensils.001"
    },
    {
      "mesh": 11,
      "name": "Utensils.001_0"
    }
  ],
  "scene": 0,
  "scenes": [
    {
      "name": "OSG_Scene",
      "nodes": [
        0
      ]
    }
  ]
}

