{
  "accessors": [
    {
      "bufferView": 2,
      "componentType": 5126,
      "count": 364,
      "max": [
        0.40000000596046448,
        -0.83864092826843262,
        0.39016774296760559
      ],
      "min": [
        -0.40000000596046448,
        -1.634258508682251,
        -0.043349165469408035
      ],
      "type": "VEC3"
    },
    {
      "bufferView": 2,
      "byteOffset": 4368,
      "componentType": 5126,
      "count": 364,
      "max": [
        1,
        0.99452191591262817,
        1
      ],
      "min": [
        -1,
        -0.99452197551727295,
        -1
      ],
      "type": "VEC3"
    },
    {
      "bufferView": 3,
      "componentType": 5126,
      "count": 364,
      "max": [
        0.99541813135147095,
        0.10501936823129654,
        0.76801753044128418,
        1
      ],
      "min": [
        -1.4581773029931355e-05,
        -0.73395794630050659,
        -1,
        1
      ],
      "type": "VEC4"
    },
    {
      "bufferView": 1,
      "componentType": 5126,
      "count": 364,
      "max": [
        0.88261640071868896,
        0.93492692708969116
      ],
      "min": [
        0.0040000001899898052,
        0.0040000001899898052
      ],
      "type": "VEC2"
    },
    {
      "bufferView": 0,
      "componentType": 5125,
      "count": 1440,
      "max": [
        363
      ],
      "min": [
        0
      ],
      "type": "SCALAR"
    },
    {
      "bufferView": 2,
      "byteOffset": 8736,
      "componentType": 5126,
      "count": 364,
      "max": [
        -0.58320498466491699,
        -0.83864092826843262,
        0.39016774296760559
      ],
      "min": [
        -1.3832049369812012,
        -1.634258508682251,
        -0.043349165469408035
      ],
      "type": "VEC3"
    },
    {
      "bufferView": 2,
      "byteOffset": 13104,
      "componentType": 5126,
      "count": 364,
      "max": [
        1,
        0.99452191591262817,
        1
      ],
      "min": [
        -1,
        -0.99452197551727295,
        -1
      ],
      "type": "VEC3"
    },
    {
      "bufferView": 3,
      "byteOffset": 5824,
      "componentType": 5126,
      "count": 364,
      "max": [
        0.99549591541290283,
        0.10527835786342621,
        0.76800549030303955,
        1
      ],
      "min": [
        -0.18936765193939209,
        -0.99999934434890747,
        -1,
        1
      ],
      "type": "VEC4"
    },
    {
      "bufferView": 1,
      "byteOffset": 2912,
      "componentType": 5126,
      "count": 364,
      "max": [
        0.99599999189376831,
        0.75139504671096802
      ],
      "min": [
        0.10111979395151138,
        0.0040000001899898052
      ],
      "type": "VEC2"
    },
    {
      "bufferView": 0,
      "byteOffset": 5760,
      "componentType": 5125,
      "count": 1440,
      "max": [
        363
      ],
      "min": [
        0
      ],
      "type": "SCALAR"
    },
    {
      "bufferView": 2,
      "byteOffset": 17472,
      "componentType": 5126,
      "count": 364,
      "max": [
        -0.58320498466491699,
        0.39780876040458679,
        0.39016774296760559
      ],
      "min": [
        -1.3832049369812012,
        -0.39780879020690918,
        -0.043349165469408035
      ],
      "type": "VEC3"
    },
    {
      "bufferView": 2,
      "byteOffset": 21840,
      "componentType": 5126,
      "count": 364,
      "max": [
        1,
        0.99452197551727295,
        1
      ],
      "min": [
        -1,
        -0.99452197551727295,
        -1
      ],
      "type": "VEC3"
    },
    {
      "bufferView": 3,
      "byteOffset": 11648,
      "componentType": 5126,
      "count": 364,
      "max": [
        0.96159911155700684,
        0.99999934434890747,
        0.76797831058502197,
        1
      ],
      "min": [
        -0.18247401714324951,
        -6.7114910962118302e-06,
        -1,
        1
      ],
      "type": "VEC4"
    },
    {
      "bufferView": 1,
      "byteOffset": 5824,
      "componentType": 5126,
      "count": 364,
      "max": [
        0.88606166839599609,
        0.75139504671096802
      ],
      "min": [
        0.19823959469795227,
        0.0040000001899898052
      ],
      "type": "VEC2"
    },
    {
      "bufferView": 0,
      "byteOffset": 11520,
      "componentType": 5125,
      "count": 1440,
      "max": [
        363
      ],
      "min": [
        0
      ],
      "type": "SCALAR"
    },
    {
      "bufferView": 2,
      "byteOffset": 26208,
      "componentType": 5126,
      "count": 364,
      "max": [
        0.40000000596046448,
        0.39780876040458679,
        0.39016774296760559
      ],
      "min": [
        -0.40000000596046448,
        -0.39780879020690918,
        -0.043349165469408035
      ],
      "type": "VEC3"
    },
    {
      "bufferView": 2,
      "byteOffset": 30576,
      "componentType": 5126,
      "count": 364,
      "max": [
        1,
        0.99452197551727295,
        1
      ],
      "min": [
        -1,
        -0.99452197551727295,
        -1
      ],
      "type": "VEC3"
    },
    {
      "bufferView": 3,
      "byteOffset": 17472,
      "componentType": 5126,
      "count": 364,
      "max": [
        0.99511200189590454,
        0.26897108554840088,
        0.76810866594314575,
        1
      ],
      "min": [
        -1.4521929188049398e-05,
        -0.84208190441131592,
        -1,
        1
      ],
      "type": "VEC4"
    },
    {
      "bufferView": 1,
      "byteOffset": 8736,
      "componentType": 5126,
      "count": 364,
      "max": [
        0.99418354034423828,
        0.97308385372161865
      ],
      "min": [
        0.29535937309265137,
        0.0040000001899898052
      ],
      "type": "VEC2"
    },
    {
      "bufferView": 0,
      "byteOffset": 17280,
      "componentType": 5125,
      "count": 1440,
      "max": [
        363
      ],
      "min": [
        0
      ],
      "type": "SCALAR"
    },
    {
      "bufferView": 2,
      "byteOffset": 34944,
      "componentType": 5126,
      "count": 364,
      "max": [
        0.40000000596046448,
        -0.83864092826843262,
        0.39016774296760559
      ],
      "min": [
        -0.40000000596046448,
        -1.634258508682251,
        -0.043349165469408035
      ],
      "type": "VEC3"
    },
    {
      "bufferView": 2,
      "byteOffset": 39312,
      "componentType": 5126,
      "count": 364,
      "max": [
        1,
        0.99452191591262817,
        1
      ],
      "min": [
        -1,
        -0.99452197551727295,
        -1
      ],
      "type": "VEC3"
    },
    {
      "bufferView": 3,
      "byteOffset": 23296,
      "componentType": 5126,
      "count": 364,
      "max": [
        0.99541813135147095,
        0.10501936823129654,
        0.76801753044128418,
        1
      ],
      "min": [
        -1.4581773029931355e-05,
        -0.73395794630050659,
        -1,
        1
      ],
      "type": "VEC4"
    },
    {
      "bufferView": 1,
      "byteOffset": 11648,
      "componentType": 5126,
      "count": 364,
      "max": [
        0.88261640071868896,
        0.93492692708969116
      ],
      "min": [
        0.0040000001899898052,
        0.0040000001899898052
      ],
      "type": "VEC2"
    },
    {
      "bufferView": 0,
      "byteOffset": 23040,
      "componentType": 5125,
      "count": 1440,
      "max": [
        363
      ],
      "min": [
        0
      ],
      "type": "SCALAR"
    },
    {
      "bufferView": 2,
      "byteOffset": 43680,
      "componentType": 5126,
      "count": 364,
      "max": [
        -0.58320498466491699,
        -0.83864092826843262,
        0.39016774296760559
      ],
      "min": [
        -1.3832049369812012,
        -1.634258508682251,
        -0.043349165469408035
      ],
      "type": "VEC3"
    },
    {
      "bufferView": 2,
      "byteOffset": 48048,
      "componentType": 5126,
      "count": 364,
      "max": [
        1,
        0.99452191591262817,
        1
      ],
      "min": [
        -1,
        -0.99452197551727295,
        -1
      ],
      "type": "VEC3"
    },
    {
      "bufferView": 3,
      "byteOffset": 29120,
      "componentType": 5126,
      "count": 364,
      "max": [
        0.99549591541290283,
        0.10527835786342621,
        0.76800549030303955,
        1
      ],
      "min": [
        -0.18936765193939209,
        -0.99999934434890747,
        -1,
        1
      ],
      "type": "VEC4"
    },
    {
      "bufferView": 1,
      "byteOffset": 14560,
      "componentType": 5126,
      "count": 364,
      "max": [
        0.99599999189376831,
        0.75139504671096802
      ],
      "min": [
        0.10111979395151138,
        0.0040000001899898052
      ],
      "type": "VEC2"
    },
    {
      "bufferView": 0,
      "byteOffset": 28800,
      "componentType": 5125,
      "count": 1440,
      "max": [
        363
      ],
      "min": [
        0
      ],
      "type": "SCALAR"
    }
  ],
  "asset": {
    "extras": {
      "author": "kimlaughton (https://sketchfab.com/kimlaughton)",
      "license": "CC-BY-4.0 (http://creativecommons.org/licenses/by/4.0/)",
      "source": "https://sketchfab.com/3d-models/pills-04dc4c03025e4c5b860a5f9241e4917e",
      "title": "Pills"
    },
    "generator": "Sketchfab-5.68.0",
    "version": "2.0"
  },
  "bufferViews": [
    {
      "buffer": 0,
      "byteLength": 34560,
      "byteOffset": 0,
      "name": "floatBufferViews",
      "target": 34963
    },
    {
      "buffer": 0,
      "byteLength": 17472,
      "byteOffset": 34560,
      "byteStride": 8,
      "name": "floatBufferViews",
      "target": 34962
    },
    {
      "buffer": 0,
      "byteLength": 52416,
      "byteOffset": 52032,
      "byteStride": 12,
      "name": "floatBufferViews",
      "target": 34962
    },
    {
      "buffer": 0,
      "byteLength": 34944,
      "byteOffset": 104448,
      "byteStride": 16,
      "name": "floatBufferViews",
      "target": 34962
    }
  ],
  "buffers": [
    {
      "byteLength": 139392,
      "uri": "scene.bin"
    }
  ],
  "images": [
    {
      "uri": "textures/Pills_baseColor.jpeg"
    },
    {
      "uri": "textures/Pills_metallicRoughness.png"
    },
    {
      "uri": "textures/Pills_normal.png"
    }
  ],
  "materials": [
    {
      "doubleSided": true,
      "name": "Pills",
      "normalTexture": {
        "index": 2,
        "scale": 1,
        "texCoord": 0
      },
      "pbrMetallicRoughness": {
        "baseColorFactor": [
          1,
          1,
          1,
          1
        ],
        "baseColorTexture": {
          "index": 0,
          "texCoord": 0
        },
        "metallicFactor": 0,
        "metallicRoughnessTexture": {
          "index": 1,
          "texCoord": 0
        },
        "roughnessFactor": 1
      }
    }
  ],
  "meshes": [
    {
      "name": "Pill_1_Pills_0",
      "primitives": [
        {
          "attributes": {
            "NORMAL": 1,
            "POSITION": 0,
            "TANGENT": 2,
            "TEXCOORD_0": 3
          },
          "indices": 4,
          "material": 0,
          "mode": 4
        }
      ]
    },
    {
      "name": "Pill_2_Pills_0",
      "primitives": [
        {
          "attributes": {
            "NORMAL": 6,
            "POSITION": 5,
            "TANGENT": 7,
            "TEXCOORD_0": 8
          },
          "indices": 9,
          "material": 0,
          "mode": 4
        }
      ]
    },
    {
      "name": "Pill_3_Pills_0",
      "primitives": [
        {
          "attributes": {
            "NORMAL": 11,
            "POSITION": 10,
            "TANGENT": 12,
            "TEXCOORD_0": 13
          },
          "indices": 14,
          "material": 0,
          "mode": 4
        }
      ]
    },
    {
      "name": "Pill_4_Pills_0",
      "primitives": [
        {
          "attributes": {
            "NORMAL": 16,
            "POSITION": 15,
            "TANGENT": 17,
            "TEXCOORD_0": 18
          },
          "indices": 19,
          "material": 0,
          "mode": 4
        }
      ]
    },
    {
      "name": "Pill_005_Pills_0",
      "primitives": [
        {
          "attributes": {
            "NORMAL": 21,
            "POSITION": 20,
            "TANGENT": 22,
            "TEXCOORD_0": 23
          },
          "indices": 24,
          "material": 0,
          "mode": 4
        }
      ]
    },
    {
      "name": "Pill_006_Pills_0",
      "primitives": [
        {
          "attributes": {
            "NORMAL": 26,
            "POSITION": 25,
            "TANGENT": 27,
            "TEXCOORD_0": 28
          },
          "indices": 29,
          "material": 0,
          "mode": 4
        }
      ]
    }
  ],
  "nodes": [
    {
      "children": [
        1
      ],
      "name": "RootNode (gltf orientation matrix)",
      "rotation": [
        -0.70710678118654746,
        -0,
        -0,
        0.70710678118654757
      ]
    },
    {
      "children": [
        2
      ],
      "matrix": [
        1,
        0,
        0,
        0,
        0,
        -1,
        0,
        0,
        0,
        0,
        -1,
        0,
        -0.025255758315324783,
        -1.1802978515625,
        -0.81456643342971802,
        1
      ],
      "name": "RootNode (model correction matrix)"
    },
    {
      "children": [
        3
      ],
      "matrix": [
        1,
        0,
        0,
        0,
        0,
        -1,
        0,
        0,
        0,
        0,
        -1,
        0,
        0,
        0,
        0,
        1
      ],
      "name": "f832ed7e63f24dbfb7cda56dbd6f6a29.fbx"
    },
    {
      "children": [
        4,
        7,
        10,
        13,
        16,
        19
      ],
      "name": "RootNode"
    },
    {
      "children": [
        5
      ],
      "matrix": [
        1,
        0,
        0,
        0,
        0,
        1,
        0,
        0,
        0,
        0,
        1,
        0,
        -0.052509129047393799,
        -0.5678105354309082,
        0.22444862127304077,
        1
      ],
      "name": "Pill_1"
    },
    {
      "children": [
        6
      ],
      "matrix": [
        1,
        0,
        -0,
        0,
        0,
        1,
        0,
        0,
        0,
        0,
        1,
        0,
        0,
        1.2364497184753418,
        -0.17340928316116333,
        1
      ],
      "name": ""
    },
    {
      "mesh": 0,
      "name": "Pill_1_Pills_0"
    },
    {
      "children": [
        8
      ],
      "matrix": [
        0.93969262642802354,
        0.34202012782408447,
        0,
        0,
        -0.34202012782408447,
        0.93969262642802354,
        0,
        0,
        0,
        0,
        1,
        0,
        0.99214959144592285,
        -0.43539291620254517,
        0.22444862127304077,
        1
      ],
      "name": "Pill_2"
    },
    {
      "children": [
        9
      ],
      "matrix": [
        1,
        0,
        -0,
        0,
        0,
        1,
        0,
        0,
        0,
        0,
        1,
        0,
        0.98320496082305908,
        1.2364497184753418,
        -0.17340928316116333,
        1
      ],
      "name": ""
    },
    {
      "mesh": 1,
      "name": "Pill_2_Pills_0"
    },
    {
      "children": [
        11
      ],
      "matrix": [
        -4.3711388064693324e-08,
        -0.999999999999999,
        0,
        0,
        0.999999999999999,
        -4.3711388064693324e-08,
        0,
        0,
        0,
        0,
        1,
        0,
        -0.53004348278045654,
        0.21010637283325195,
        0.22444862127304077,
        1
      ],
      "name": "Pill_3"
    },
    {
      "children": [
        12
      ],
      "matrix": [
        1,
        0,
        -0,
        0,
        0,
        1,
        0,
        0,
        0,
        0,
        1,
        0,
        0.98320496082305908,
        0,
        -0.17340928316116333,
        1
      ],
      "name": ""
    },
    {
      "mesh": 2,
      "name": "Pill_3_Pills_0"
    },
    {
      "children": [
        14
      ],
      "matrix": [
        0.98480775215419081,
        0.17364818253298783,
        1.3877787807814457e-17,
        0,
        7.5904033058904474e-09,
        -4.3047315045896539e-08,
        0.99999999999999911,
        0,
        0.17364818253298764,
        -0.98480775215419003,
        -4.3711389396960953e-08,
        0,
        -0.0023554768413305283,
        1.0134241580963135,
        0.40906894207000732,
        1
      ],
      "name": "Pill_4"
    },
    {
      "children": [
        15
      ],
      "matrix": [
        1,
        0,
        -0,
        0,
        0,
        1,
        0,
        0,
        0,
        0,
        1,
        0,
        0,
        0,
        -0.17340928316116333,
        1
      ],
      "name": ""
    },
    {
      "mesh": 3,
      "name": "Pill_4_Pills_0"
    },
    {
      "children": [
        17
      ],
      "matrix": [
        0.98480775215419081,
        0.1736481825329878,
        -1.6543612251060553e-24,
        0,
        0.17364818253298581,
        -0.98480775215417959,
        1.5099580487099679e-07,
        0,
        2.622014708595426e-08,
        -1.4870183917971919e-07,
        -0.99999999999998868,
        0,
        0.96304523944854736,
        0.79654651880264282,
        0.22444862127304077,
        1
      ],
      "name": "Pill_005"
    },
    {
      "children": [
        18
      ],
      "matrix": [
        1,
        0,
        -0,
        0,
        0,
        1,
        0,
        0,
        0,
        0,
        1,
        0,
        0,
        1.2364497184753418,
        -0.17340928316116333,
        1
      ],
      "name": ""
    },
    {
      "mesh": 4,
      "name": "Pill_005_Pills_0"
    },
    {
      "children": [
        20
      ],
      "matrix": [
        -0.17364774304373931,
        0.98480782964790015,
        -8.7422774861744853e-08,
        0,
        0.98480782964778468,
        0.17364774304376152,
        4.7683714899969635e-07,
        0,
        4.8477372534724823e-07,
        -3.2929384501733038e-09,
        -0.99999999999988232,
        0,
        -0.87274408340454102,
        1.7144927978515625,
        0.22444862127304077,
        1
      ],
      "name": "Pill_006"
    },
    {
      "children": [
        21
      ],
      "matrix": [
        1,
        0,
        -0,
        0,
        0,
        1,
        0,
        0,
        0,
        0,
        1,
        0,
        0.98320496082305908,
        1.2364497184753418,
        -0.17340928316116333,
        1
      ],
      "name": ""
    },
    {
      "mesh": 5,
      "name": "Pill_006_Pills_0"
    }
  ],
  "samplers": [
    {
      "magFilter": 9729,
      "minFilter": 9987,
      "wrapS": 10497,
      "wrapT": 10497
    }
  ],
  "scene": 0,
  "scenes": [
    {
      "name": "OSG_Scene",
      "nodes": [
        0
      ]
    }
  ],
  "textures": [
    {
      "sampler": 0,
      "source": 0
    },
    {
      "sampler": 0,
      "source": 1
    },
    {
      "sampler": 0,
      "source": 2
    }
  ]
}

